<?xml version="1.0" encoding="UTF-8"?>
<svg id="Layer_2" data-name="Layer 2" xmlns="http://www.w3.org/2000/svg" viewBox="0 0 357.53 92.67">
  <defs>
    <style>
      .cls-1 {
        fill: #efeded;
      }

      .cls-2 {
        fill: #30d343;
      }
    </style>
  </defs>
  <g id="svg181689">
    <g id="logo-group">
      <g id="logo-center">
        <g id="title">
          <g id="path181698">
            <path class="cls-1" d="M55.6,12.36H22.86c-8.24,0-10.5,2.27-10.5,10.5v7h43.25v19.36c0,14.21-8.65,22.86-22.86,22.86H0v-12.36h32.74c8.24,0,10.5-2.27,10.5-10.5v-7H0v-19.36C0,8.65,8.65,0,22.86,0h32.74v12.36Z"/>
          </g>
          <g id="path181700">
            <path class="cls-1" d="M80.27,59.72h2.57c12.46,0,16.99-4.53,16.99-16.99v-9.78h-8.75c-12.46,0-16.99,4.53-16.99,16.99v42.73h-12.36v-42.73c0-18.43,10.91-29.35,29.35-29.35h21.11v22.14c0,18.43-10.91,29.35-29.35,29.35h-2.57s0-12.36,0-12.36Z"/>
          </g>
          <g id="path181702">
            <path class="cls-1" d="M136.98,40.77h19.56c-.1-5.46-2.57-7.83-8.03-7.83h-9.68c-5.56,0-8.03,2.47-8.03,8.03v10.71c0,5.56,2.47,8.03,8.03,8.03h23.89v12.36h-23.89c-11.53,0-20.39-8.86-20.39-20.39v-10.71c0-11.53,8.86-20.39,20.39-20.39h9.68c11.53,0,20.39,8.86,20.39,20.39v12.15h-31.92v-12.36Z"/>
          </g>
          <g id="path181704">
            <path class="cls-1" d="M213.25,72.08v-22.14c0-12.46-4.53-16.99-16.99-16.99h-8.75v39.13h-12.36V20.59h21.11c18.43,0,29.35,10.91,29.35,29.35v22.14h-12.36s0,0,0,0Z"/>
          </g>
          <g id="path181706">
            <path class="cls-1" d="M263.78,32.95h-2.57c-12.46,0-16.99,4.53-16.99,16.99v9.78h8.75c12.46,0,16.99-4.53,16.99-16.99V0h12.36v42.73c0,18.43-10.91,29.35-29.35,29.35h-21.11v-22.14c0-18.43,10.91-29.35,29.35-29.35h2.57v12.36Z"/>
          </g>
          <g id="path181708">
            <rect class="cls-2" x="288.57" y="0" width="12.36" height="12.36"/>
            <rect class="cls-1" x="288.57" y="20.59" width="12.36" height="51.48"/>
          </g>
          <g id="path181710">
            <path class="cls-1" d="M357.53,20.59v6.69c0,8.24-2.57,14.72-7.21,19.05,4.63,4.32,7.21,10.81,7.21,19.05v6.69h-12.36v-6.69c0-9.78-3.09-12.87-12.87-12.87s-12.87,3.09-12.87,12.87v6.69h-12.36v-6.69c0-8.24,2.57-14.72,7.21-19.05-4.63-4.32-7.21-10.81-7.21-19.05v-6.69h12.36v6.69c0,9.78,3.09,12.87,12.87,12.87s12.87-3.09,12.87-12.87v-6.69h12.36Z"/>
          </g>
        </g>
      </g>
    </g>
  </g>
</svg>