<?xml version="1.0" encoding="UTF-8"?>
<svg id="Layer_2" xmlns="http://www.w3.org/2000/svg" version="1.1" viewBox="0 0 357.5 92.7">
  <!-- Generator: Adobe Illustrator 29.3.0, SVG Export Plug-In . SVG Version: 2.1.0 Build 146)  -->
  <defs>
    <style>
      .st0 {
        fill: #191919;
      }

      .st1 {
        fill: #30d343;
      }
    </style>
  </defs>
  <g id="svg181689">
    <g id="logo-group">
      <g id="logo-center">
        <g id="title">
          <g id="path181698">
            <path class="st0" d="M55.6,12.4H22.9c-8.2,0-10.5,2.3-10.5,10.5v7h43.2v19.4c0,14.2-8.7,22.9-22.9,22.9H0v-12.4h32.7c8.2,0,10.5-2.3,10.5-10.5v-7H0v-19.4C0,8.6,8.6,0,22.9,0h32.7s0,12.4,0,12.4Z"/>
          </g>
          <g id="path181700">
            <path class="st0" d="M80.3,59.7h2.6c12.5,0,17-4.5,17-17v-9.8h-8.8c-12.5,0-17,4.5-17,17v42.7h-12.4v-42.7c0-18.4,10.9-29.4,29.3-29.4h21.1v22.1c0,18.4-10.9,29.3-29.3,29.3h-2.6s0-12.4,0-12.4Z"/>
          </g>
          <g id="path181702">
            <path class="st0" d="M137,40.8h19.6c-.1-5.5-2.6-7.8-8-7.8h-9.7c-5.6,0-8,2.5-8,8v10.7c0,5.6,2.5,8,8,8h23.9v12.4h-23.9c-11.5,0-20.4-8.9-20.4-20.4v-10.7c0-11.5,8.9-20.4,20.4-20.4h9.7c11.5,0,20.4,8.9,20.4,20.4v12.2h-31.9v-12.4h0Z"/>
          </g>
          <g id="path181704">
            <path class="st0" d="M213.2,72.1v-22.1c0-12.5-4.5-17-17-17h-8.8v39.1h-12.4V20.6h21.1c18.4,0,29.4,10.9,29.4,29.4v22.1h-12.4Z"/>
          </g>
          <g id="path181706">
            <path class="st0" d="M263.8,33h-2.6c-12.5,0-17,4.5-17,17v9.8h8.8c12.5,0,17-4.5,17-17V0h12.4v42.7c0,18.4-10.9,29.4-29.4,29.4h-21.1v-22.1c0-18.4,10.9-29.4,29.3-29.4h2.6v12.4h0Z"/>
          </g>
          <g id="path181708">
            <rect class="st1" x="288.6" width="12.4" height="12.4"/>
            <rect class="st0" x="288.6" y="20.6" width="12.4" height="51.5"/>
          </g>
          <g id="path181710">
            <path class="st0" d="M357.5,20.6v6.7c0,8.2-2.6,14.7-7.2,19.1,4.6,4.3,7.2,10.8,7.2,19.1v6.7h-12.4v-6.7c0-9.8-3.1-12.9-12.9-12.9s-12.9,3.1-12.9,12.9v6.7h-12.4v-6.7c0-8.2,2.6-14.7,7.2-19-4.6-4.3-7.2-10.8-7.2-19v-6.7h12.4v6.7c0,9.8,3.1,12.9,12.9,12.9s12.9-3.1,12.9-12.9v-6.7s12.4,0,12.4,0Z"/>
          </g>
        </g>
      </g>
    </g>
  </g>
</svg>