<?xml version="1.0" encoding="UTF-8"?>
<svg id="Layer_2" data-name="Layer 2" xmlns="http://www.w3.org/2000/svg" viewBox="0 0 533.15 124.24">
  <defs>
    <style>
      .cls-1 {
        fill: #dbdbdb;
      }

      .cls-2 {
        fill: #039a81;
      }

      .cls-3 {
        fill: #64bc76;
      }
    </style>
  </defs>
  <g id="svg384878">
    <g id="logo-group">
      <g id="logo-center">
        <g id="title">
          <g id="path384887">
            <path class="cls-1" d="M9.38,85.46h10.06c1.7,0,3.05-1.13,3.5-2.6l10.06-37.65c2.71-9.61,10.63-15.6,20.35-15.6l11.19.11c5.2,0,9.27,4.07,9.38,9.27-.11,5.2-4.18,9.27-9.38,9.27h-10.06c-1.7,0-3.05,1.02-3.5,2.49l-10.06,37.65c-2.71,9.61-10.63,15.6-20.35,15.6l-11.19-.11c-5.2,0-9.27-4.07-9.38-9.27.11-5.2,4.18-9.16,9.38-9.16Z"/>
          </g>
          <g id="path384889">
            <path class="cls-1" d="M116.81,104.8c-7.06,0-13.73-1.98-19.44-5.41v15.47c0,5.62-4.75,10.05-10.4,9.3-4.73-.63-8.14-4.9-8.14-9.67v-47.25s0-.05,0-.08c0-.04,0-.08,0-.12,0-21.14,17.3-38.1,37.99-38.1s37.76,16.96,37.76,38.1-16.96,37.76-37.76,37.76ZM116.81,47.59c-1.86,0-3.66.28-5.37.77-.36.18-.74.35-1.13.49-6.99,2.44-12.2,8.85-12.87,16.68-.02.27-.03.54-.04.81-.01.26-.03.52-.03.78.05,10.59,8.84,19.13,19.44,19.13s19.11-8.59,19.11-19.22-8.59-19.44-19.11-19.44h0Z"/>
            <path class="cls-2" d="M97.37,99.39v15.47c0,5.62-4.75,10.05-10.4,9.3-4.73-.63-8.14-4.9-8.14-9.67v-47.25s0-.05,0-.08c.04,13.65,7.53,25.63,18.54,32.23Z"/>
            <path class="cls-3" d="M104.76,31.04c5.81-1.93,11.82,2.35,11.82,8.47v.8c0,3.49-2.07,6.52-5.14,8.04-7.61,2.19-13.37,8.9-14,17.17-.02.27-.03.54-.04.81,0,.23-.04.46-.04.7,0,.03,0,.06,0,.09,0,.04,0,.08,0,.11v32.15c-11-6.6-18.49-18.58-18.54-32.23.03-16.91,10.92-31.13,25.93-36.12h0Z"/>
          </g>
          <g id="path384891">
            <path class="cls-1" d="M201.37,28.94c-20.66,0-37.93,16.93-37.93,37.7,0,5.19,4.18,9.37,9.37,9.37h56.89c5.19,0,9.37-4.18,9.37-9.37,0-20.77-16.93-37.7-37.7-37.7ZM201.37,47.45c7.17,0,13.45,4.01,16.7,9.93h-33.69c3.33-5.92,9.73-9.93,16.99-9.93Z"/>
            <path class="cls-2" d="M220.45,66.64c0-3.36-.86-6.51-2.37-9.26h-33.69c-1.54,2.74-2.43,5.9-2.43,9.26,0,5.19-4.18,9.37-9.14,9.37h56.89c-5.08,0-9.26-4.18-9.26-9.37Z"/>
            <path class="cls-3" d="M229.7,57.38h-11.63c1.51,2.74,2.37,5.9,2.37,9.26,0,5.19,4.18,9.37,9.26,9.37s9.37-4.18,9.37-9.37-4.18-9.26-9.37-9.26Z"/>
            <path class="cls-3" d="M181.95,66.64c0-3.36.89-6.51,2.43-9.26h-11.57c-5.19,0-9.37,4.18-9.37,9.26s4.18,9.37,9.37,9.37,9.14-4.18,9.14-9.37Z"/>
            <path class="cls-2" d="M222.67,81.99c-3.16-1.9-7.12-1.7-10.15.42-3.17,2.22-7.02,3.53-11.16,3.53h0c-4.14,0-7.99-1.31-11.16-3.53-3.02-2.12-6.98-2.33-10.15-.42-5.72,3.44-6,11.62-.55,15.48,6.21,4.4,13.77,6.99,21.86,6.99h0c8.08,0,15.64-2.59,21.86-6.99,5.45-3.86,5.17-12.03-.55-15.48h0Z"/>
          </g>
          <g id="path384893">
            <path class="cls-1" d="M248.94,94.62v-27.92c0-20.8,16.96-37.76,37.76-37.76s37.98,16.96,37.98,37.76v27.92c0,5.2-4.18,9.38-9.27,9.38s-9.38-4.18-9.38-9.38v-27.92c0-10.63-8.7-19.22-19.33-19.22s-19.22,8.59-19.22,19.22v27.92c0,5.2-4.07,9.38-9.16,9.38s-9.38-4.18-9.38-9.38Z"/>
          </g>
          <g id="path384895">
            <path class="cls-1" d="M373.53,29.14c7.06,0,13.73,1.98,19.44,5.41V9.38c0-5.62,4.75-10.05,10.4-9.3,4.73.63,8.14,4.9,8.14,9.67v56.94s0,.05,0,.08c0,.04,0,.08,0,.12,0,21.14-17.3,38.1-37.99,38.1s-37.76-16.96-37.76-38.1,16.96-37.76,37.76-37.76h0ZM373.53,86.34c1.86,0,3.66-.28,5.37-.77.36-.18.74-.35,1.13-.49,6.99-2.44,12.2-8.85,12.87-16.68.02-.27.03-.54.04-.81.01-.26.03-.52.03-.78-.05-10.59-8.84-19.13-19.44-19.13s-19.11,8.59-19.11,19.22,8.59,19.44,19.11,19.44h0Z"/>
            <path class="cls-3" d="M385.58,102.9c-5.81,1.93-11.82-2.35-11.82-8.47v-.8c0-3.49,2.07-6.52,5.14-8.04,7.61-2.19,13.37-8.9,14-17.17.02-.27.03-.54.04-.81,0-.23.04-.46.04-.7,0-.03,0-.06,0-.09,0-.04,0-.08,0-.11v-32.15c11,6.6,18.49,18.58,18.54,32.23-.03,16.91-10.92,31.13-25.93,36.12h0Z"/>
          </g>
          <g id="path384897">
            <path class="cls-1" d="M426.37,94.62v-55.62c0-5.2,4.18-9.38,9.38-9.38s9.16,4.18,9.16,9.38v55.62c0,5.2-4.07,9.38-9.16,9.38s-9.38-4.18-9.38-9.38Z"/>
          </g>
          <g id="path384899">
            <path class="cls-1" d="M533.15,38.48s0,.03,0,.05v-.15h0c-.08-5.08-4.13-9.13-9.21-9.21-5.08.08-9.14,4.13-9.36,9.21h-.01c0,10.56-8.63,19.19-19.19,19.19s-19.48-8.63-19.48-19.19h0c-.08-5.08-4.13-9.13-9.21-9.21-5.09.08-9.14,4.13-9.36,9.21h-.01v.15s0-.02,0-.04c.03,11.31,5.07,21.46,13.05,28.37-7.98,6.91-13.02,17.06-13.05,28.37,0-.01,0-.02,0-.04v.15h.01c.22,5.08,4.27,9.14,9.36,9.21,5.08-.08,9.14-4.13,9.21-9.21h0c0-10.56,8.63-19.19,19.48-19.19s19.19,8.63,19.19,19.19h.01c.22,5.08,4.27,9.14,9.36,9.21,5.08-.08,9.14-4.13,9.21-9.21h0v-.15s0,.03,0,.05c-.03-11.31-5.07-21.47-13.01-28.38,7.94-6.91,12.98-17.07,13.01-28.38h0Z"/>
            <path class="cls-3" d="M470.36,66.86c6.68,5.78,15.41,9.3,25.02,9.3s18.13-3.51,24.77-9.3c-6.64-5.78-15.3-9.3-24.77-9.3s-18.34,3.51-25.02,9.3Z"/>
            <path class="cls-2" d="M457.3,95.23s0,.07,0,.11c.22,5.08,4.27,9.14,9.36,9.21,5.08-.08,9.14-4.13,9.21-9.21,0-.05,0-.1,0-.15v.15c0-10.56,8.63-19.19,19.48-19.19-9.6,0-18.34-3.51-25.02-9.3-7.98,6.91-13.02,17.06-13.05,28.37h0Z"/>
          </g>
        </g>
      </g>
    </g>
  </g>
</svg>